<svg width="48" height="48" viewBox="0 0 48 48" fill="none" xmlns="http://www.w3.org/2000/svg">
<rect x="8.5" y="16.5" width="31" height="31" rx="15.5" fill="white"/>
<rect x="8.5" y="16.5" width="31" height="31" rx="15.5" stroke="#E9E9F2"/>
<path fill-rule="evenodd" clip-rule="evenodd" d="M28.9078 27.0923C28.128 26.3126 27.2774 26.4821 26.9615 26.5812L26.9575 26.5824C26.9557 26.583 26.954 26.5838 26.9524 26.5847C26.9512 26.5855 26.95 26.5863 26.949 26.5873C26.9479 26.5884 26.9467 26.5896 26.9453 26.591L26.9222 26.6139C26.5962 26.9399 26.4332 27.1029 26.3572 27.2844C26.2536 27.5316 26.2536 27.8101 26.3572 28.0574C26.4332 28.2388 26.5962 28.4018 26.9222 28.7278L27.2723 29.0779C27.5983 29.4039 27.7613 29.5669 27.9428 29.6429C28.19 29.7465 28.4685 29.7465 28.7157 29.6429C28.8972 29.5669 29.0602 29.4039 29.3862 29.0779L29.4092 29.0548C29.4106 29.0534 29.4118 29.0522 29.4128 29.0511C29.4138 29.0501 29.4147 29.049 29.4154 29.0478C29.4164 29.0462 29.4172 29.0444 29.4177 29.0426L29.419 29.0387C29.5181 28.7227 29.6876 27.8721 28.9078 27.0923ZM26.3766 32.0876C26.7726 31.6915 26.9706 31.4935 27.0448 31.2652C27.11 31.0644 27.11 30.848 27.0448 30.6472C26.9706 30.4188 26.7726 30.2208 26.3766 29.8248L26.1753 29.6236C25.7793 29.2276 25.5813 29.0296 25.353 28.9554C25.1521 28.8901 24.9358 28.8901 24.7349 28.9554C24.5066 29.0296 24.3086 29.2276 23.9126 29.6236L18.9058 34.6304C18.8606 34.6756 18.8383 34.698 18.8227 34.7149C18.822 34.7157 18.8215 34.7167 18.8213 34.7177C18.8177 34.7405 18.8138 34.7718 18.8062 34.8353L18.5374 37.0753C18.5121 37.2861 18.4982 37.4064 18.4955 37.4933C18.4953 37.4997 18.5005 37.5049 18.5069 37.5047C18.5938 37.5019 18.7141 37.488 18.9249 37.4627L21.1649 37.194C21.2283 37.1863 21.2597 37.1825 21.2824 37.1788C21.2835 37.1787 21.2845 37.1782 21.2853 37.1774C21.3022 37.1618 21.3246 37.1395 21.3698 37.0944L26.3766 32.0876ZM26.6139 25.4729C27.1098 25.3173 28.5028 25.0447 29.7291 26.271C30.9554 27.4973 30.6828 28.8903 30.5273 29.3863C30.5132 29.4313 30.4983 29.4777 30.4627 29.5517C30.4345 29.6103 30.3859 29.6905 30.347 29.7427C30.2963 29.8106 30.2502 29.8566 30.2139 29.8929C30.2117 29.8951 30.2096 29.8972 30.2076 29.8992L22.1911 37.9157C22.1854 37.9214 22.1796 37.9273 22.1736 37.9333C22.1081 37.999 22.0257 38.0818 21.9265 38.1476C21.8404 38.2047 21.7471 38.25 21.6491 38.2824C21.5361 38.3198 21.42 38.3334 21.3279 38.3443C21.3195 38.3453 21.3113 38.3463 21.3033 38.3472L19.042 38.6186C18.8601 38.6404 18.6878 38.6611 18.5432 38.6656C18.3886 38.6705 18.1985 38.6607 18.0073 38.5745C17.7489 38.4581 17.5421 38.2512 17.4256 37.9929C17.3394 37.8016 17.3297 37.6116 17.3345 37.4569C17.339 37.3123 17.3597 37.14 17.3816 36.9581L17.6529 34.6969C17.6539 34.6889 17.6549 34.6807 17.6558 34.6723C17.6667 34.5801 17.6804 34.4641 17.7177 34.3511C17.7501 34.253 17.7955 34.1597 17.8526 34.0736C17.9183 33.9745 18.0011 33.892 18.0669 33.8266C18.0729 33.8206 18.0788 33.8147 18.0844 33.8091L26.1009 25.7926C26.103 25.7905 26.1051 25.7884 26.1072 25.7863C26.1435 25.7499 26.1895 25.7038 26.2575 25.6531C26.3096 25.6142 26.3899 25.5656 26.4485 25.5374C26.5224 25.5018 26.5689 25.487 26.6139 25.4729Z" fill="#040509"/>
<rect x="8.5" y="8.5" width="31" height="31" rx="15.5" fill="white"/>
<rect x="8.5" y="8.5" width="31" height="31" rx="15.5" stroke="#E9E9F2"/>
<path fill-rule="evenodd" clip-rule="evenodd" d="M26.4679 19.801C25.5117 19.801 24.7366 20.5761 24.7366 21.5322C24.7366 22.4884 25.5117 23.2635 26.4679 23.2635C27.424 23.2635 28.1991 22.4884 28.1991 21.5322C28.1991 20.5761 27.424 19.801 26.4679 19.801ZM25.7314 21.5322C25.7314 21.1255 26.0611 20.7958 26.4679 20.7958C26.8746 20.7958 27.2043 21.1255 27.2043 21.5322C27.2043 21.9389 26.8746 22.2687 26.4679 22.2687C26.0611 22.2687 25.7314 21.9389 25.7314 21.5322Z" fill="#040509"/>
<path fill-rule="evenodd" clip-rule="evenodd" d="M23.9796 17.3333H24.0208C25.0246 17.3332 25.806 17.3332 26.4344 17.3804C27.0722 17.4283 27.5925 17.5267 28.0657 17.745C29.0326 18.1912 29.8089 18.9674 30.2551 19.9344C30.4734 20.4076 30.5718 20.9279 30.6197 21.5657C30.6668 22.1941 30.6668 22.9755 30.6668 23.9793V24.0205C30.6668 25.0244 30.6668 25.8057 30.6197 26.4341C30.5718 27.072 30.4734 27.5923 30.2551 28.0654C29.8585 28.925 29.201 29.6338 28.3807 30.0941C28.3746 30.1008 28.3684 30.1074 28.3619 30.1139C28.2777 30.1981 28.1708 30.2458 28.0609 30.257C27.589 30.4738 27.0701 30.5717 26.4344 30.6194C25.806 30.6666 25.0246 30.6666 24.0208 30.6666H23.9795C22.9757 30.6666 22.1944 30.6666 21.5659 30.6194C20.9281 30.5716 20.4078 30.4731 19.9347 30.2548C18.9677 29.8087 18.1914 29.0324 17.7453 28.0654C17.527 27.5923 17.4285 27.072 17.3806 26.4341C17.3335 25.8057 17.3335 25.0244 17.3335 24.0205V23.9793C17.3335 22.9755 17.3335 22.1941 17.3806 21.5657C17.4285 20.9279 17.527 20.4076 17.7453 19.9344C18.1914 18.9674 18.9677 18.1912 19.9347 17.745C20.4078 17.5267 20.9281 17.4283 21.5659 17.3804C22.1944 17.3332 22.9757 17.3332 23.9796 17.3333ZM29.3345 27.6856C29.0542 28.2748 28.6155 28.7706 28.0713 29.1199L26.2373 27.2859L26.4369 27.0863C26.7054 26.8178 26.8859 26.6379 27.0361 26.5104C27.1818 26.3867 27.2658 26.342 27.3299 26.3212C27.4964 26.2671 27.6757 26.2671 27.8422 26.3212C27.9063 26.342 27.9904 26.3867 28.136 26.5104C28.2861 26.6378 28.4665 26.8177 28.735 27.0861L29.3345 27.6856ZM29.6277 26.3597C29.6226 26.4274 29.617 26.4924 29.6107 26.555L29.4241 26.3684C29.1736 26.1179 28.9646 25.9088 28.7798 25.752C28.5871 25.5884 28.3884 25.4526 28.1496 25.375C27.7833 25.256 27.3888 25.256 27.0225 25.375C26.7837 25.4526 26.585 25.5884 26.3922 25.7521C26.2075 25.9089 25.9983 26.1181 25.7478 26.3686L25.5288 26.5876L23.9818 25.0857C23.7311 24.8423 23.5217 24.639 23.3369 24.4866C23.1441 24.3276 22.9458 24.196 22.7088 24.1217C22.3448 24.0076 21.9541 24.0105 21.5919 24.13C21.356 24.2078 21.1596 24.3422 20.9692 24.5041C20.7867 24.6592 20.5803 24.8656 20.3332 25.1127L18.4503 26.9956C18.4162 26.8114 18.3909 26.6025 18.3726 26.3597C18.3286 25.7728 18.3283 25.0287 18.3283 23.9999C18.3283 22.9711 18.3286 22.227 18.3726 21.6401C18.4163 21.0584 18.5008 20.6714 18.6486 20.3512C18.9956 19.5991 19.5993 18.9953 20.3514 18.6483C20.6716 18.5006 21.0586 18.4161 21.6404 18.3724C22.2272 18.3284 22.9714 18.328 24.0002 18.328C25.0289 18.328 25.7731 18.3284 26.36 18.3724C26.9417 18.4161 27.3287 18.5006 27.6489 18.6483C28.401 18.9953 29.0048 19.5991 29.3518 20.3512C29.4995 20.6714 29.584 21.0584 29.6277 21.6401C29.6717 22.227 29.672 22.9711 29.672 23.9999C29.672 25.0287 29.6717 25.7728 29.6277 26.3597ZM20.3514 29.3515C19.7242 29.0621 19.2002 28.5942 18.8422 28.0106L21.0225 25.8303C21.2874 25.5654 21.4653 25.388 21.6134 25.2621C21.7569 25.1401 21.8399 25.0957 21.9035 25.0747C22.0681 25.0204 22.2457 25.0191 22.4111 25.0709C22.475 25.091 22.5586 25.1342 22.704 25.2541C22.8539 25.3777 23.0344 25.5525 23.3032 25.8134L25.1848 27.6402L27.0782 29.5336C26.8743 29.576 26.6397 29.6064 26.36 29.6274C25.7731 29.6715 25.0289 29.6718 24.0002 29.6718C22.9714 29.6718 22.2272 29.6715 21.6404 29.6274C21.0586 29.5838 20.6716 29.4992 20.3514 29.3515Z" fill="#040509"/>
<rect x="0.5" y="8.5" width="31" height="31" rx="15.5" fill="white"/>
<rect x="0.5" y="8.5" width="31" height="31" rx="15.5" stroke="#E9E9F2"/>
<path fill-rule="evenodd" clip-rule="evenodd" d="M16.1277 17.3333C14.1391 17.3333 12.527 18.9454 12.527 20.934V23.4146C12.527 25.4033 14.1391 27.0154 16.1277 27.0154C18.1164 27.0154 19.7285 25.4033 19.7285 23.4146V20.934C19.7285 18.9454 18.1164 17.3333 16.1277 17.3333ZM13.527 20.934C13.527 19.4977 14.6914 18.3333 16.1277 18.3333C17.5641 18.3333 18.7285 19.4977 18.7285 20.934V23.4146C18.7285 24.851 17.5641 26.0154 16.1277 26.0154C14.6914 26.0154 13.527 24.851 13.527 23.4146V20.934Z" fill="#040509"/>
<path d="M11.6665 23.4146C11.6665 23.1385 11.4426 22.9146 11.1665 22.9146C10.8904 22.9146 10.6665 23.1385 10.6665 23.4146C10.6665 25.1301 11.4543 26.5014 12.5205 27.4343C13.4322 28.2321 14.5659 28.7263 15.6277 28.847V30.2364C15.6277 30.5125 15.8516 30.7364 16.1277 30.7364C16.4039 30.7364 16.6277 30.5125 16.6277 30.2364V28.847C17.6896 28.7263 18.8233 28.2321 19.735 27.4343C20.8012 26.5014 21.589 25.1301 21.589 23.4146C21.589 23.1385 21.3651 22.9146 21.089 22.9146C20.8128 22.9146 20.589 23.1385 20.589 23.4146C20.589 24.8 19.9592 25.9093 19.0765 26.6818C18.1841 27.4626 17.0583 27.8759 16.1277 27.8759C15.1972 27.8759 14.0714 27.4626 13.179 26.6818C12.2963 25.9093 11.6665 24.8 11.6665 23.4146Z" fill="#040509"/>
<rect width="48" height="48" rx="24" fill="#D4AF37"/>
<path fill-rule="evenodd" clip-rule="evenodd" d="M24 16.5C24.4142 16.5 24.75 16.8358 24.75 17.25V23.25H30.75C31.1642 23.25 31.5 23.5858 31.5 24C31.5 24.4142 31.1642 24.75 30.75 24.75H24.75V30.75C24.75 31.1642 24.4142 31.5 24 31.5C23.5858 31.5 23.25 31.1642 23.25 30.75V24.75H17.25C16.8358 24.75 16.5 24.4142 16.5 24C16.5 23.5858 16.8358 23.25 17.25 23.25H23.25V17.25C23.25 16.8358 23.5858 16.5 24 16.5Z" fill="white"/>
</svg>
