<svg width="23" height="22" viewBox="0 0 23 22" fill="none" xmlns="http://www.w3.org/2000/svg">
<path d="M19.2479 7.17632C19.1577 7.23279 17.0105 8.42445 17.0105 11.0667C17.1117 14.0799 19.7202 15.1367 19.7649 15.1367C19.7202 15.1931 19.3711 16.5762 18.3371 18.026C17.5165 19.2749 16.6057 20.534 15.2226 20.534C13.907 20.534 13.4348 19.7017 11.9168 19.7017C10.2866 19.7017 9.82529 20.534 8.57715 20.534C7.19409 20.534 6.21582 19.2074 5.35049 17.9703C4.22629 16.3511 3.27075 13.8101 3.23702 11.3703C3.21429 10.0774 3.46215 8.80652 4.09135 7.72705C4.97942 6.22005 6.56489 5.19705 8.29629 5.16332C9.62289 5.11859 10.8036 6.07412 11.6132 6.07412C12.389 6.07412 13.8396 5.16332 15.4808 5.16332C16.1892 5.16405 18.0782 5.37745 19.2479 7.17632ZM11.501 4.90519C11.2648 3.72452 11.9168 2.54385 12.524 1.79072C13.2998 0.879919 14.5252 0.261719 15.582 0.261719C15.6494 1.44239 15.2219 2.60032 14.4578 3.44365C13.7721 4.35445 12.5914 5.04012 11.501 4.90519Z" fill="white"/>
</svg>
